# xmcd
#
# Track frame offsets: 
#        150
#        12632
#        24774
#        37894
#        50382
#        61804
#        74514
#        86386
#        98928
#        110357
#        122265
#        134364
#        150291
#        165040
#        179513
#        193226
#
# Disc length: 2750 seconds
#
# Revision: 1
# Processed by: cddbd v1.5.2PL0 Copyright (c) Steve Scherf et al.
# Submitted via: ExactAudioCopyFreeDBPlugin 1.0
#
DISCID=bf0abc10
DTITLE=nova - nova danse 1940
DYEAR=2014
DGENRE=Jazz
TTITLE0=james moody and his bop men - tin tin deo
TTITLE1=louis jordan and his tympany five - choo choo ch'boogie
TTITLE2=kay kyser (ft. gloria wood and group) - managua nicaragua
TTITLE3=perez prado - mambo n°5
TTITLE4=cab calloway - jonah joins the cab
TTITLE5=freddy martin (ft. jack fina, piano inst.) - bumble boogie
TTITLE6=washboard sam - come on back
TTITLE7=muggsy spanier and his ragtime band - at the jazz band ball
TTITLE8=los amigos panamericanos - chiquito montuno
TTITLE9=ella fitzgerald and louis jordan - stone cold dead in the market
TTITLE10=duke ellington - ko-ko
TTITLE11=desi arnaz - babalu
TTITLE12=lionel hampton - hey ba-ba-re-bop
TTITLE13=machito - nague
TTITLE14=woody herman - las chiapanecas
TTITLE15=milt herth trio and the jesters - fuzzy wuzzy
EXTD=YEAR: 2014
EXTT0=
EXTT1=
EXTT2=
EXTT3=
EXTT4=
EXTT5=
EXTT6=
EXTT7=
EXTT8=
EXTT9=
EXTT10=
EXTT11=
EXTT12=
EXTT13=
EXTT14=
EXTT15=
PLAYORDER=
